<svg xmlns="http://www.w3.org/2000/svg" viewBox="0 0 1200 1200" role="img" aria-labelledby="title desc">
  <title id="title">Ur Beauty hero artwork</title>
  <desc id="desc">A soft luxury beauty composition with bottles, petals, and cream tones.</desc>
  <defs>
    <linearGradient id="bg" x1="0%" y1="0%" x2="100%" y2="100%">
      <stop offset="0%" stop-color="#fbf5f1" />
      <stop offset="50%" stop-color="#f6e8e3" />
      <stop offset="100%" stop-color="#edd5d0" />
    </linearGradient>
    <linearGradient id="glass" x1="0%" y1="0%" x2="100%" y2="100%">
      <stop offset="0%" stop-color="#fff9f6" stop-opacity="0.95" />
      <stop offset="100%" stop-color="#ead5cc" stop-opacity="0.7" />
    </linearGradient>
    <linearGradient id="serum" x1="0%" y1="0%" x2="100%" y2="100%">
      <stop offset="0%" stop-color="#d6a27f" />
      <stop offset="100%" stop-color="#a36d57" />
    </linearGradient>
    <filter id="shadow" x="-20%" y="-20%" width="140%" height="140%">
      <feDropShadow dx="0" dy="18" stdDeviation="22" flood-color="#8a5d4f" flood-opacity="0.18" />
    </filter>
  </defs>

  <rect width="1200" height="1200" fill="url(#bg)" />
  <circle cx="206" cy="208" r="168" fill="#f7dfd8" opacity="0.8" />
  <circle cx="1012" cy="246" r="144" fill="#f0d6c8" opacity="0.65" />
  <circle cx="920" cy="1030" r="204" fill="#e5c0b8" opacity="0.55" />

  <g opacity="0.75">
    <path d="M115 839c97-108 240-160 371-129 101 24 132 84 222 81 91-3 169-96 280-90 86 4 159 55 212 127v372H0V985c28-46 68-98 115-146z" fill="#f1d7cf" />
    <path d="M0 1008c84-71 219-97 329-59 95 32 124 98 226 101 102 3 145-74 255-88 131-16 275 67 390 163v175H0z" fill="#ecd1c8" />
  </g>

  <g filter="url(#shadow)">
    <ellipse cx="646" cy="934" rx="283" ry="62" fill="#b98a75" opacity="0.18" />

    <g transform="translate(470 228)">
      <rect x="0" y="134" width="266" height="470" rx="46" fill="url(#glass)" stroke="#e7cbc0" stroke-width="6" />
      <rect x="26" y="176" width="214" height="338" rx="34" fill="url(#serum)" opacity="0.86" />
      <rect x="90" y="0" width="88" height="170" rx="28" fill="#f8efe9" stroke="#dfc2b4" stroke-width="6" />
      <rect x="74" y="74" width="120" height="50" rx="18" fill="#744f44" />
      <rect x="73" y="274" width="122" height="122" rx="12" fill="#fffaf7" opacity="0.96" />
      <text x="134" y="333" font-family="Poppins, Arial, sans-serif" font-size="28" font-weight="700" text-anchor="middle" fill="#5f433b">UR</text>
      <text x="134" y="367" font-family="Poppins, Arial, sans-serif" font-size="26" font-weight="600" text-anchor="middle" fill="#5f433b">BEAUTY</text>
      <text x="134" y="563" font-family="Poppins, Arial, sans-serif" font-size="22" font-weight="500" text-anchor="middle" fill="#fffaf7">ROSE ELIXIR</text>
    </g>
  </g>

  <g transform="translate(205 758)">
    <ellipse cx="0" cy="96" rx="114" ry="26" fill="#b98a75" opacity="0.14" />
    <rect x="-63" y="-70" width="126" height="174" rx="34" fill="#fff7f2" stroke="#e4c8bc" stroke-width="6" />
    <rect x="-38" y="-32" width="76" height="82" rx="22" fill="#f1d8cb" />
    <rect x="-23" y="-118" width="46" height="52" rx="16" fill="#83574a" />
  </g>

  <g transform="translate(944 760)">
    <ellipse cx="0" cy="122" rx="144" ry="30" fill="#b98a75" opacity="0.14" />
    <rect x="-86" y="-12" width="172" height="134" rx="46" fill="#fff8f3" stroke="#e3c6ba" stroke-width="6" />
    <rect x="-58" y="22" width="116" height="72" rx="30" fill="#f2dbcf" />
    <rect x="-16" y="-120" width="32" height="114" rx="14" fill="#7a5447" />
    <circle cx="0" cy="-148" r="26" fill="#f6ebe5" stroke="#dec0b4" stroke-width="6" />
  </g>

  <g opacity="0.95">
    <path d="M328 946c65-69 179-88 249-41-41 49-110 90-188 91-28 0-47-10-61-50z" fill="#db9a9a" />
    <path d="M846 982c17-87 84-157 158-175 25 78-12 180-91 213-36 15-61 6-67-38z" fill="#b6b48b" />
    <path d="M910 950c-22-88-96-151-172-156 1 82 58 171 137 196 30 9 53-2 35-40z" fill="#d7b17a" />
    <path d="M253 1017c50-28 118-22 153 16-41 39-111 59-163 33-18-9-22-27 10-49z" fill="#f0c5b8" />
  </g>
</svg>
